<?xml version="1.0" encoding="UTF-8"?>
<svg version="1.1" xmlns="http://www.w3.org/2000/svg" width="1024" height="1024">
<path d="M0 0 C6.42015548 1.27022431 10.53542996 6.53542996 15 11 C17.12806574 12.83371646 19.26807562 14.650466 21.42578125 16.44921875 C21.94527344 16.96097656 22.46476562 17.47273438 23 18 C23 18.66 23 19.32 23 20 C23.86939209 20.3861145 23.86939209 20.3861145 24.75634766 20.7800293 C27.19868315 22.10803261 28.89667654 23.59457114 30.8984375 25.51953125 C31.62546875 26.21240234 32.3525 26.90527344 33.1015625 27.61914062 C33.85179687 28.34294922 34.60203125 29.06675781 35.375 29.8125 C41.15894538 35.41351302 41.15894538 35.41351302 47.2265625 40.69921875 C49.40528019 42.50663385 51.38667194 44.35494554 53.37371826 46.36155701 C55.40998685 48.41305271 57.46255928 50.44772926 59.51489258 52.4831543 C63.75724651 56.69368307 67.99531319 60.90847597 72.23016834 65.126544 C74.78519411 67.67107291 77.34208609 70.21367023 79.90307617 72.75219727 C82.39002855 75.21748637 84.87212239 77.68757058 87.35086632 80.16111183 C88.75460493 81.55935091 90.16338846 82.95251926 91.57221985 84.34562683 C92.41697372 85.19022964 93.2617276 86.03483246 94.13208008 86.9050293 C94.88088943 87.64939743 95.62969879 88.39376556 96.40119934 89.16069031 C98 91 98 91 98 93 C98.66 93 99.32 93 100 93 C101.33984375 94.328125 101.33984375 94.328125 102.9375 96.25 C106.04569236 99.9097505 109.24275956 103.47303408 112.5 107 C119.21240553 114.29924538 125.66147269 121.74003728 131.91015625 129.44140625 C133.59939419 131.50953868 135.31805606 133.54131707 137.0625 135.5625 C139 138 139 138 139 140 C139.66 140 140.32 140 141 140 C141.9906466 141.4155099 142.97264036 142.83830451 143.89794922 144.29736328 C145.62624404 146.96752901 147.60530005 149.43215509 149.5625 151.9375 C153.30843848 156.77008417 156.99823605 161.6397792 160.625 166.5625 C161.04338135 167.12638428 161.4617627 167.69026855 161.89282227 168.27124023 C162.31233154 168.84302002 162.73184082 169.4147998 163.1640625 170.00390625 C163.62006836 170.60283691 164.07607422 171.20176758 164.54589844 171.81884766 C166 174 166 174 167.43066406 177.08349609 C170.46272867 183.11589793 170.46272867 183.11589793 175.95489502 186.70706177 C180.89158778 187.70591268 185.80870353 187.70864197 190.82666016 187.56445312 C193.50079695 187.49998079 196.15082514 187.56380617 198.82421875 187.640625 C208.0211336 187.79418821 208.0211336 187.79418821 215.7824707 183.53027344 C217.83822327 180.44382849 219.43032343 177.35582453 221 174 C222.01751976 172.4582845 223.07077085 170.93919025 224.16796875 169.453125 C224.66184082 168.76186523 225.15571289 168.07060547 225.66455078 167.35839844 C226.41841064 166.31474121 226.41841064 166.31474121 227.1875 165.25 C227.73647949 164.48977539 228.28545898 163.72955078 228.85107422 162.94628906 C233.63678764 156.38279141 238.69975388 150.07789086 243.87109375 143.81640625 C246.88530339 140.16352206 249.79013102 136.4331931 252.6875 132.6875 C256.75228976 127.456426 261.0559217 122.53337671 265.57421875 117.68359375 C268.92954985 113.97165741 272.01220415 110.06058779 275.08984375 106.1171875 C277 104 277 104 280 103 C280.71253739 101.69060599 281.37537667 100.35353904 282 99 C283.28761292 97.39552307 283.28761292 97.39552307 284.77563477 95.81469727 C285.34281723 95.20939682 285.90999969 94.60409637 286.49436951 93.98045349 C287.11626663 93.3281929 287.73816376 92.67593231 288.37890625 92.00390625 C289.36583214 90.96067955 289.36583214 90.96067955 290.37269592 89.89637756 C298.23095267 81.63578662 306.28326571 73.5663786 314.35473633 65.51489258 C316.96227975 62.91277179 319.56435064 60.30526247 322.16601562 57.69726562 C323.84863735 56.01530383 325.53156878 54.33365179 327.21484375 52.65234375 C328.36194069 51.50221046 328.36194069 51.50221046 329.5322113 50.32884216 C333.66867077 46.21020036 337.88915009 42.25823406 342.32691956 38.46510315 C343.73699623 37.23031029 345.06698672 35.90493468 346.375 34.5625 C348 33 348 33 350 33 C350.25007813 32.41476563 350.50015625 31.82953125 350.7578125 31.2265625 C352.16476141 28.70467294 353.68712804 27.24913938 355.875 25.375 C356.89207031 24.48941406 356.89207031 24.48941406 357.9296875 23.5859375 C360 22 360 22 362.1953125 20.9765625 C364.35538437 20.07361527 364.35538437 20.07361527 365 17 C366.70703125 15.24609375 366.70703125 15.24609375 368.8125 13.4375 C369.84310547 12.53837891 369.84310547 12.53837891 370.89453125 11.62109375 C372.86555845 10.10351251 374.73964261 9.02097042 377 8 C377 7.34 377 6.68 377 6 C378.42578125 4.4921875 378.42578125 4.4921875 380.3125 2.875 C381.23482422 2.06675781 381.23482422 2.06675781 382.17578125 1.2421875 C384 0 384 0 387 0 C387.00808685 0.64509521 387.01617371 1.29019043 387.02450562 1.95483398 C387.18604202 77.25942442 387.18604202 77.25942442 395 152 C395.18997559 153.14791016 395.37995117 154.29582031 395.57568359 155.47851562 C396.21001545 159.29940885 396.85307367 163.11871984 397.5 166.9375 C397.70149658 168.1339917 397.90299316 169.3304834 398.1105957 170.56323242 C399.47057097 178.44956031 401.1137303 186.22359674 403 194 C403.29841797 195.24322021 403.59683594 196.48644043 403.90429688 197.76733398 C408.88794866 218.38515675 414.8522049 238.48934131 421.80322266 258.52539062 C422.84708794 261.55604969 423.86287842 264.59287442 424.85546875 267.640625 C425.11948486 268.45072021 425.38350098 269.26081543 425.65551758 270.09545898 C426.29966146 272.08034891 426.94286199 274.06554493 427.5859375 276.05078125 C431.66289004 287.88419033 437.12654835 299.27966234 442.11547852 310.75292969 C442.4016655 311.41113708 442.68785248 312.06934448 442.98271179 312.74749756 C443.54955921 314.05114673 444.11654305 315.35473659 444.68367004 316.65826416 C446.20191832 320.15108424 447.70637496 323.6491863 449.19140625 327.15625 C451.89234866 333.50987479 454.74027761 339.5201059 458.4296875 345.36328125 C460.3280821 348.55088412 461.9418709 351.85390653 463.5625 355.1875 C466.91493019 362.03032387 470.55448505 368.68442828 474.3125 375.3125 C474.86252686 376.2830835 475.41255371 377.25366699 475.97924805 378.25366211 C478.7156678 383.0584686 481.48741589 387.83892544 484.31640625 392.58984375 C484.83227295 393.4614917 485.34813965 394.33313965 485.87963867 395.23120117 C486.85624453 396.87620405 487.84172582 398.51597897 488.8371582 400.1496582 C489.26988037 400.87886475 489.70260254 401.60807129 490.1484375 402.359375 C490.53177246 402.99327148 490.91510742 403.62716797 491.31005859 404.28027344 C492 406 492 406 491 409 C488.42887074 410.03598615 485.96651489 410.85659585 483.3125 411.625 C482.48451904 411.87660889 481.65653809 412.12821777 480.8034668 412.38745117 C476.72556114 413.62085322 472.6361156 414.81407651 468.546875 416.00927734 C444.31565043 423.09730052 420.85510457 431.17337071 398 442 C397.33162109 442.31227539 396.66324219 442.62455078 395.97460938 442.94628906 C375.30696022 452.65191761 355.61778878 464.82734384 337 478 C331.31764706 482 331.31764706 482 329 482 C329 482.66 329 483.32 329 484 C327.61235771 484.96198515 326.21745094 485.91489447 324.79101562 486.81835938 C320.94451436 489.35612738 317.43391385 492.38268979 313.859375 495.28515625 C309.21331705 499 309.21331705 499 307 499 C307 499.66 307 500.32 307 501 C305.53190495 502.31153763 303.99804216 503.54994075 302.4375 504.75 C299.21144125 507.25763148 296.05533462 509.78701789 293 512.5 C290 515 290 515 288 515 C287.67 515.99 287.34 516.98 287 518 C281.53488372 523 281.53488372 523 279 523 C278.7426709 523.59490234 278.4853418 524.18980469 278.22021484 524.80273438 C276.88868497 527.20044723 275.58996225 528.4267621 273.4765625 530.15625 C268.51857359 534.35543158 263.95624201 538.89694255 259.375 543.5 C258.55515625 544.31597656 257.7353125 545.13195312 256.890625 545.97265625 C253.29381443 549.57524948 249.7903462 553.1740702 246.5390625 557.09375 C245.70117188 558.0528125 244.86328125 559.011875 244 560 C243.34 560 242.68 560 242 560 C241.62875 560.8353125 241.62875 560.8353125 241.25 561.6875 C239.77075182 564.42410913 238.06532561 566.67650869 236 569 C235.34 569 234.68 569 234 569 C233.7525 569.55171875 233.505 570.1034375 233.25 570.671875 C231.75765526 573.45136707 229.96327477 575.7814707 228 578.25 C227.29875 579.14203125 226.5975 580.0340625 225.875 580.953125 C225.25625 581.62859375 224.6375 582.3040625 224 583 C223.34 583 222.68 583 222 583 C221.773125 583.53753906 221.54625 584.07507813 221.3125 584.62890625 C219.59116466 587.7385805 217.32884779 590.27704671 215 592.9375 C210.49792424 598.14501854 206.24315057 603.48400117 202.17382812 609.03686523 C201.16087692 610.39271638 200.0857803 611.70173824 199 613 C198.34 613 197.68 613 197 613 C196.34 614.65 195.68 616.3 195 618 C191.6700893 617.78367169 190.85786282 616.8405852 188.58984375 614.296875 C187.6965529 613.12150117 186.81300575 611.93868073 185.9375 610.75 C184.96178651 609.46581069 183.98386487 608.18329655 183.00390625 606.90234375 C182.50648926 606.24991699 182.00907227 605.59749023 181.49658203 604.92529297 C179.20785035 601.98093113 176.80058966 599.14435662 174.375 596.3125 C173.46987442 595.25015135 172.56492462 594.1876529 171.66015625 593.125 C171.22074707 592.609375 170.78133789 592.09375 170.32861328 591.5625 C168.14198114 588.99093703 165.97151704 586.40737495 163.8125 583.8125 C163.07644531 582.93207031 162.34039062 582.05164063 161.58203125 581.14453125 C160 579 160 579 160 577 C159.01 576.67 158.02 576.34 157 576 C155.7890625 574.546875 155.7890625 574.546875 154.625 572.75 C152.37312237 569.44590574 149.86858245 566.80028287 147 564 C145.25941741 562.03883667 143.54756935 560.05564717 141.84375 558.0625 C140.15411158 556.17239601 138.40416625 554.37123904 136.60205078 552.58886719 C134.52840793 550.53228875 132.4742193 548.45677869 130.41796875 546.3828125 C128.67454827 544.6301396 126.93105665 542.87753744 125.1875 541.125 C123.89102539 539.81595703 123.89102539 539.81595703 122.56835938 538.48046875 C117.54560857 533.43876417 112.43622289 528.59324707 107 524 C105.5 522.72916667 104 521.45833333 102.5 520.1875 C101.8296875 519.62417969 101.159375 519.06085937 100.46875 518.48046875 C99 517 99 517 99 515 C98.47664062 514.78472656 97.95328125 514.56945312 97.4140625 514.34765625 C94.03204369 512.45963604 91.2866829 509.9754736 88.375 507.4375 C84.44179069 503.85426322 84.44179069 503.85426322 80 501 C80 500.34 80 499.68 80 499 C79.28070313 498.75894531 78.56140625 498.51789063 77.8203125 498.26953125 C74.59620192 496.81823494 72.51453226 495.03845366 69.875 492.6875 C62.47098032 486.29274201 54.38486898 480.94250973 46.25878906 475.51806641 C44.30089217 474.20222087 42.36142754 472.86548838 40.4296875 471.51171875 C22.77284181 459.24396695 3.54959842 448.67111547 -16.06005859 439.89599609 C-17.97504265 439.01152699 -19.83939643 438.05847654 -21.7109375 437.0859375 C-27.26980305 434.2875602 -33.06587361 432.09346147 -38.875 429.875 C-39.49183655 429.63900085 -40.1086731 429.40300171 -40.74420166 429.15985107 C-53.33473274 424.37248999 -66.14999167 420.52165463 -79.10574341 416.85928345 C-85.24370878 415.11924183 -91.36462413 413.33005543 -97.4453125 411.3984375 C-99.29793701 410.81715088 -99.29793701 410.81715088 -101.18798828 410.22412109 C-102.11595215 409.82016113 -103.04391602 409.41620117 -104 409 C-105 406 -105 406 -103.5625 402.8125 C-103.046875 401.884375 -102.53125 400.95625 -102 400 C-101.34 400 -100.68 400 -100 400 C-99.88817383 399.44054687 -99.77634766 398.88109375 -99.66113281 398.3046875 C-98.89972416 395.65044167 -97.77223266 393.53458737 -96.421875 391.125 C-95.88111328 390.15304687 -95.34035156 389.18109375 -94.78320312 388.1796875 C-94.19474609 387.13039063 -93.60628906 386.08109375 -93 385 C-91.75427535 382.75051642 -90.50952116 380.5004952 -89.265625 378.25 C-88.60791791 377.06302027 -87.95012016 375.87609077 -87.29223633 374.68920898 C-83.84615667 368.46790427 -80.42036431 362.2354717 -77 356 C-76.25580811 354.64430908 -76.25580811 354.64430908 -75.49658203 353.26123047 C-63.31473782 330.95291494 -53.10268516 307.71511649 -44 284 C-43.54222168 282.81712402 -43.54222168 282.81712402 -43.07519531 281.61035156 C-33.81051782 257.6330677 -26.18341462 232.90764134 -20.62402344 207.80712891 C-20.18652096 205.83905244 -19.74118407 203.87270888 -19.29003906 201.90771484 C-4.08161794 135.66505352 -1.80005265 67.67567219 0 0 Z " fill="#F15700" transform="translate(319,203)"/>
<path d="M0 0 C6.42015548 1.27022431 10.53542996 6.53542996 15 11 C17.12806574 12.83371646 19.26807562 14.650466 21.42578125 16.44921875 C21.94527344 16.96097656 22.46476562 17.47273438 23 18 C23 18.66 23 19.32 23 20 C23.86939209 20.3861145 23.86939209 20.3861145 24.75634766 20.7800293 C27.19868315 22.10803261 28.89667654 23.59457114 30.8984375 25.51953125 C31.62546875 26.21240234 32.3525 26.90527344 33.1015625 27.61914062 C33.85179687 28.34294922 34.60203125 29.06675781 35.375 29.8125 C41.15894538 35.41351302 41.15894538 35.41351302 47.2265625 40.69921875 C49.40528019 42.50663385 51.38667194 44.35494554 53.37371826 46.36155701 C55.40998685 48.41305271 57.46255928 50.44772926 59.51489258 52.4831543 C63.75724651 56.69368307 67.99531319 60.90847597 72.23016834 65.126544 C74.78519411 67.67107291 77.34208609 70.21367023 79.90307617 72.75219727 C82.39002855 75.21748637 84.87212239 77.68757058 87.35086632 80.16111183 C88.75460493 81.55935091 90.16338846 82.95251926 91.57221985 84.34562683 C92.41697372 85.19022964 93.2617276 86.03483246 94.13208008 86.9050293 C94.88088943 87.64939743 95.62969879 88.39376556 96.40119934 89.16069031 C98 91 98 91 98 93 C98.66 93 99.32 93 100 93 C101.33984375 94.328125 101.33984375 94.328125 102.9375 96.25 C106.04569236 99.9097505 109.24275956 103.47303408 112.5 107 C119.21240553 114.29924538 125.66147269 121.74003728 131.91015625 129.44140625 C133.59939419 131.50953868 135.31805606 133.54131707 137.0625 135.5625 C139 138 139 138 139 140 C139.66 140 140.32 140 141 140 C141.9906466 141.4155099 142.97264036 142.83830451 143.89794922 144.29736328 C145.62624404 146.96752901 147.60530005 149.43215509 149.5625 151.9375 C153.30843848 156.77008417 156.99823605 161.6397792 160.625 166.5625 C161.04338135 167.12638428 161.4617627 167.69026855 161.89282227 168.27124023 C162.31233154 168.84302002 162.73184082 169.4147998 163.1640625 170.00390625 C163.62006836 170.60283691 164.07607422 171.20176758 164.54589844 171.81884766 C166 174 166 174 167.43066406 177.08349609 C170.46272867 183.11589793 170.46272867 183.11589793 175.95489502 186.70706177 C180.89158778 187.70591268 185.80870353 187.70864197 190.82666016 187.56445312 C193.50079695 187.49998079 196.15082514 187.56380617 198.82421875 187.640625 C208.0211336 187.79418821 208.0211336 187.79418821 215.7824707 183.53027344 C217.83822327 180.44382849 219.43032343 177.35582453 221 174 C222.01751976 172.4582845 223.07077085 170.93919025 224.16796875 169.453125 C224.66184082 168.76186523 225.15571289 168.07060547 225.66455078 167.35839844 C226.41841064 166.31474121 226.41841064 166.31474121 227.1875 165.25 C227.73647949 164.48977539 228.28545898 163.72955078 228.85107422 162.94628906 C233.63678764 156.38279141 238.69975388 150.07789086 243.87109375 143.81640625 C246.88530339 140.16352206 249.79013102 136.4331931 252.6875 132.6875 C256.75228976 127.456426 261.0559217 122.53337671 265.57421875 117.68359375 C268.92954985 113.97165741 272.01220415 110.06058779 275.08984375 106.1171875 C277 104 277 104 280 103 C280.71253739 101.69060599 281.37537667 100.35353904 282 99 C283.28761292 97.39552307 283.28761292 97.39552307 284.77563477 95.81469727 C285.34281723 95.20939682 285.90999969 94.60409637 286.49436951 93.98045349 C287.11626663 93.3281929 287.73816376 92.67593231 288.37890625 92.00390625 C289.36583214 90.96067955 289.36583214 90.96067955 290.37269592 89.89637756 C298.23095267 81.63578662 306.28326571 73.5663786 314.35473633 65.51489258 C316.96227975 62.91277179 319.56435064 60.30526247 322.16601562 57.69726562 C323.84863735 56.01530383 325.53156878 54.33365179 327.21484375 52.65234375 C328.36194069 51.50221046 328.36194069 51.50221046 329.5322113 50.32884216 C333.66867077 46.21020036 337.88915009 42.25823406 342.32691956 38.46510315 C343.73699623 37.23031029 345.06698672 35.90493468 346.375 34.5625 C348 33 348 33 350 33 C350.25007813 32.41476563 350.50015625 31.82953125 350.7578125 31.2265625 C352.16476141 28.70467294 353.68712804 27.24913938 355.875 25.375 C356.89207031 24.48941406 356.89207031 24.48941406 357.9296875 23.5859375 C360 22 360 22 362.1953125 20.9765625 C364.35538437 20.07361527 364.35538437 20.07361527 365 17 C366.70703125 15.24609375 366.70703125 15.24609375 368.8125 13.4375 C369.84310547 12.53837891 369.84310547 12.53837891 370.89453125 11.62109375 C372.86555845 10.10351251 374.73964261 9.02097042 377 8 C377 7.34 377 6.68 377 6 C378.42578125 4.4921875 378.42578125 4.4921875 380.3125 2.875 C381.23482422 2.06675781 381.23482422 2.06675781 382.17578125 1.2421875 C384 0 384 0 387 0 C387.00808685 0.64509521 387.01617371 1.29019043 387.02450562 1.95483398 C387.18604202 77.25942442 387.18604202 77.25942442 395 152 C395.18997559 153.14791016 395.37995117 154.29582031 395.57568359 155.47851562 C396.21001545 159.29940885 396.85307367 163.11871984 397.5 166.9375 C397.70149658 168.1339917 397.90299316 169.3304834 398.1105957 170.56323242 C399.47057097 178.44956031 401.1137303 186.22359674 403 194 C403.29841797 195.24322021 403.59683594 196.48644043 403.90429688 197.76733398 C408.88794866 218.38515675 414.8522049 238.48934131 421.80322266 258.52539062 C422.84708794 261.55604969 423.86287842 264.59287442 424.85546875 267.640625 C425.11948486 268.45072021 425.38350098 269.26081543 425.65551758 270.09545898 C426.29966146 272.08034891 426.94286199 274.06554493 427.5859375 276.05078125 C431.66289004 287.88419033 437.12654835 299.27966234 442.11547852 310.75292969 C442.4016655 311.41113708 442.68785248 312.06934448 442.98271179 312.74749756 C443.54955921 314.05114673 444.11654305 315.35473659 444.68367004 316.65826416 C446.20191832 320.15108424 447.70637496 323.6491863 449.19140625 327.15625 C451.89234866 333.50987479 454.74027761 339.5201059 458.4296875 345.36328125 C460.3280821 348.55088412 461.9418709 351.85390653 463.5625 355.1875 C466.91493019 362.03032387 470.55448505 368.68442828 474.3125 375.3125 C474.86252686 376.2830835 475.41255371 377.25366699 475.97924805 378.25366211 C478.7156678 383.0584686 481.48741589 387.83892544 484.31640625 392.58984375 C484.83227295 393.4614917 485.34813965 394.33313965 485.87963867 395.23120117 C486.85624453 396.87620405 487.84172582 398.51597897 488.8371582 400.1496582 C489.26988037 400.87886475 489.70260254 401.60807129 490.1484375 402.359375 C490.53177246 402.99327148 490.91510742 403.62716797 491.31005859 404.28027344 C492 406 492 406 491 409 C488.42887074 410.03598615 485.96651489 410.85659585 483.3125 411.625 C482.48451904 411.87660889 481.65653809 412.12821777 480.8034668 412.38745117 C476.72556114 413.62085322 472.6361156 414.81407651 468.546875 416.00927734 C444.31565043 423.09730052 420.85510457 431.17337071 398 442 C397.33162109 442.31227539 396.66324219 442.62455078 395.97460938 442.94628906 C375.30696022 452.65191761 355.61778878 464.82734384 337 478 C331.31764706 482 331.31764706 482 329 482 C329 482.66 329 483.32 329 484 C327.61235771 484.96198515 326.21745094 485.91489447 324.79101562 486.81835938 C320.94451436 489.35612738 317.43391385 492.38268979 313.859375 495.28515625 C309.21331705 499 309.21331705 499 307 499 C307 499.66 307 500.32 307 501 C305.53190495 502.31153763 303.99804216 503.54994075 302.4375 504.75 C299.21144125 507.25763148 296.05533462 509.78701789 293 512.5 C290 515 290 515 288 515 C287.67 515.99 287.34 516.98 287 518 C281.53488372 523 281.53488372 523 279 523 C278.7426709 523.59490234 278.4853418 524.18980469 278.22021484 524.80273438 C276.88868497 527.20044723 275.58996225 528.4267621 273.4765625 530.15625 C268.51857359 534.35543158 263.95624201 538.89694255 259.375 543.5 C258.55515625 544.31597656 257.7353125 545.13195312 256.890625 545.97265625 C253.29381443 549.57524948 249.7903462 553.1740702 246.5390625 557.09375 C245.70117188 558.0528125 244.86328125 559.011875 244 560 C243.34 560 242.68 560 242 560 C241.62875 560.8353125 241.62875 560.8353125 241.25 561.6875 C239.77075182 564.42410913 238.06532561 566.67650869 236 569 C235.34 569 234.68 569 234 569 C233.7525 569.55171875 233.505 570.1034375 233.25 570.671875 C231.75765526 573.45136707 229.96327477 575.7814707 228 578.25 C227.29875 579.14203125 226.5975 580.0340625 225.875 580.953125 C225.25625 581.62859375 224.6375 582.3040625 224 583 C223.34 583 222.68 583 222 583 C221.773125 583.53753906 221.54625 584.07507813 221.3125 584.62890625 C219.59116466 587.7385805 217.32884779 590.27704671 215 592.9375 C210.49792424 598.14501854 206.24315057 603.48400117 202.17382812 609.03686523 C201.16087692 610.39271638 200.0857803 611.70173824 199 613 C198.34 613 197.68 613 197 613 C196.34 614.65 195.68 616.3 195 618 C191.6700893 617.78367169 190.85786282 616.8405852 188.58984375 614.296875 C187.6965529 613.12150117 186.81300575 611.93868073 185.9375 610.75 C184.96178651 609.46581069 183.98386487 608.18329655 183.00390625 606.90234375 C182.50648926 606.24991699 182.00907227 605.59749023 181.49658203 604.92529297 C179.20785035 601.98093113 176.80058966 599.14435662 174.375 596.3125 C173.46987442 595.25015135 172.56492462 594.1876529 171.66015625 593.125 C171.22074707 592.609375 170.78133789 592.09375 170.32861328 591.5625 C168.14198114 588.99093703 165.97151704 586.40737495 163.8125 583.8125 C163.07644531 582.93207031 162.34039062 582.05164063 161.58203125 581.14453125 C160 579 160 579 160 577 C159.01 576.67 158.02 576.34 157 576 C155.7890625 574.546875 155.7890625 574.546875 154.625 572.75 C152.37312237 569.44590574 149.86858245 566.80028287 147 564 C145.25941741 562.03883667 143.54756935 560.05564717 141.84375 558.0625 C140.15411158 556.17239601 138.40416625 554.37123904 136.60205078 552.58886719 C134.52840793 550.53228875 132.4742193 548.45677869 130.41796875 546.3828125 C128.67454827 544.6301396 126.93105665 542.87753744 125.1875 541.125 C123.89102539 539.81595703 123.89102539 539.81595703 122.56835938 538.48046875 C117.54560857 533.43876417 112.43622289 528.59324707 107 524 C105.5 522.72916667 104 521.45833333 102.5 520.1875 C101.8296875 519.62417969 101.159375 519.06085937 100.46875 518.48046875 C99 517 99 517 99 515 C98.47664062 514.78472656 97.95328125 514.56945312 97.4140625 514.34765625 C94.03204369 512.45963604 91.2866829 509.9754736 88.375 507.4375 C84.44179069 503.85426322 84.44179069 503.85426322 80 501 C80 500.34 80 499.68 80 499 C79.28070313 498.75894531 78.56140625 498.51789063 77.8203125 498.26953125 C74.59620192 496.81823494 72.51453226 495.03845366 69.875 492.6875 C62.47098032 486.29274201 54.38486898 480.94250973 46.25878906 475.51806641 C44.30089217 474.20222087 42.36142754 472.86548838 40.4296875 471.51171875 C22.77284181 459.24396695 3.54959842 448.67111547 -16.06005859 439.89599609 C-17.97504265 439.01152699 -19.83939643 438.05847654 -21.7109375 437.0859375 C-27.26980305 434.2875602 -33.06587361 432.09346147 -38.875 429.875 C-39.49183655 429.63900085 -40.1086731 429.40300171 -40.74420166 429.15985107 C-53.33473274 424.37248999 -66.14999167 420.52165463 -79.10574341 416.85928345 C-85.24370878 415.11924183 -91.36462413 413.33005543 -97.4453125 411.3984375 C-99.29793701 410.81715088 -99.29793701 410.81715088 -101.18798828 410.22412109 C-102.11595215 409.82016113 -103.04391602 409.41620117 -104 409 C-105 406 -105 406 -103.5625 402.8125 C-103.046875 401.884375 -102.53125 400.95625 -102 400 C-101.34 400 -100.68 400 -100 400 C-99.88817383 399.44054687 -99.77634766 398.88109375 -99.66113281 398.3046875 C-98.89972416 395.65044167 -97.77223266 393.53458737 -96.421875 391.125 C-95.88111328 390.15304687 -95.34035156 389.18109375 -94.78320312 388.1796875 C-94.19474609 387.13039063 -93.60628906 386.08109375 -93 385 C-91.75427535 382.75051642 -90.50952116 380.5004952 -89.265625 378.25 C-88.60791791 377.06302027 -87.95012016 375.87609077 -87.29223633 374.68920898 C-83.84615667 368.46790427 -80.42036431 362.2354717 -77 356 C-76.25580811 354.64430908 -76.25580811 354.64430908 -75.49658203 353.26123047 C-63.31473782 330.95291494 -53.10268516 307.71511649 -44 284 C-43.54222168 282.81712402 -43.54222168 282.81712402 -43.07519531 281.61035156 C-33.81051782 257.6330677 -26.18341462 232.90764134 -20.62402344 207.80712891 C-20.18652096 205.83905244 -19.74118407 203.87270888 -19.29003906 201.90771484 C-4.08161794 135.66505352 -1.80005265 67.67567219 0 0 Z M34 77 C33.95512451 77.77150391 33.91024902 78.54300781 33.86401367 79.33789062 C28.45535856 170.88762943 9.00557579 257.43616927 -30 341 C-30.55510254 342.18996582 -31.11020508 343.37993164 -31.68212891 344.60595703 C-38.28956375 358.6978519 -45.19913744 372.52898452 -53 386 C-49.96335518 388.52059021 -47.16733551 389.813604 -43.43359375 391.05859375 C-42.32218018 391.43798096 -41.2107666 391.81736816 -40.06567383 392.20825195 C-38.86837646 392.61390381 -37.6710791 393.01955566 -36.4375 393.4375 C-1.27321465 405.70781366 32.37698048 422.77393593 63 444 C63.73718262 444.50789063 64.47436523 445.01578125 65.23388672 445.5390625 C84.53443917 458.84926439 102.75527763 473.19494429 120.5625 488.4375 C121.14016113 488.92734375 121.71782227 489.4171875 122.31298828 489.921875 C124.75158347 492.00212565 127.07994004 494.08141544 129.328125 496.37109375 C132.68336393 499.95199551 132.68336393 499.95199551 137.234375 501.04296875 C139.60968146 500.55276289 141.72629958 499.84280493 144 499 C146.33030877 498.32283685 148.66317204 497.65431183 151 497 C151.21674926 480.87885707 151.28689755 464.99220623 149 449 C148.84402344 447.85144531 148.68804687 446.70289063 148.52734375 445.51953125 C148.06592538 442.33613221 147.54921011 439.1694 147 436 C146.89042969 435.36465332 146.78085937 434.72930664 146.66796875 434.07470703 C144.72675421 422.93672197 142.47015645 412.14316126 138.1015625 401.671875 C136.41374897 397.57802941 134.89043755 393.42232235 133.34375 389.2734375 C132.9003125 388.19320313 132.456875 387.11296875 132 386 C131.76692139 385.29552734 131.53384277 384.59105469 131.29370117 383.86523438 C130.40747069 381.57164221 129.60198936 379.87094055 128 378 C124.80682488 376.79840054 121.69842556 376.80020667 118.3125 376.75 C116.40833874 376.64150919 114.50466102 376.52420074 112.6015625 376.3984375 C111.65442383 376.34010742 110.70728516 376.28177734 109.73144531 376.22167969 C93.25182052 374.88421997 77.2834448 368.07817986 65 357 C64.41347656 356.505 63.82695312 356.01 63.22265625 355.5 C51.6154431 344.97191551 44.50361276 328.95961168 41 314 C75.0739604 311.52831375 75.0739604 311.52831375 90 315 C90.85980469 315.17144531 91.71960938 315.34289062 92.60546875 315.51953125 C113.50993542 320.30563514 131.80438231 334.44315298 143.1875 352.3125 C158.38718026 378.19710401 163.18434678 406.71847021 163.1328125 436.40234375 C163.13376923 437.64190323 163.13472595 438.88146271 163.13571167 440.15858459 C163.13638789 442.76286877 163.13457285 445.36715468 163.13037109 447.97143555 C163.12501956 451.92305345 163.1303329 455.87455747 163.13671875 459.82617188 C163.13605778 462.37239608 163.13477623 464.91862022 163.1328125 467.46484375 C163.13483673 468.62878159 163.13686096 469.79271942 163.13894653 470.9919281 C163.11727454 478.7024826 162.69424077 486.32114283 162 494 C162.98750244 494.0095874 163.97500488 494.0191748 164.99243164 494.02905273 C168.5255127 494.06335449 168.5255127 494.06335449 172.05859375 494.09765625 C174.88873341 494.33901792 174.88873341 494.33901792 176 493 C178.58189446 492.89908525 181.136465 492.86028501 183.71875 492.8671875 C184.49182495 492.86623077 185.2648999 492.86527405 186.06140137 492.86428833 C187.69897544 492.86360659 189.33655219 492.86546043 190.97412109 492.86962891 C193.48931921 492.87497729 196.00433873 492.86968374 198.51953125 492.86328125 C200.10677123 492.86394203 201.6940111 492.8652232 203.28125 492.8671875 C204.4171759 492.86415115 204.4171759 492.86415115 205.5760498 492.86105347 C210.88504868 492.88504868 210.88504868 492.88504868 212 494 C214.18292774 494.23481693 216.37203174 494.41363323 218.5625 494.5625 C219.76003906 494.64628906 220.95757813 494.73007812 222.19140625 494.81640625 C223.11824219 494.87699219 224.04507812 494.93757813 225 495 C225.16743476 489.72580508 225.01713333 484.71544653 224.29653931 479.48234558 C222.82905105 468.71850652 222.60332855 458.03815611 222.625 447.1875 C222.62487915 446.25200317 222.6247583 445.31650635 222.62463379 444.35266113 C222.66347894 423.13327071 224.52100078 402.33148636 231 382 C231.51820313 380.20369141 231.51820313 380.20369141 232.046875 378.37109375 C236.54687135 363.59199614 243.52050904 350.39669035 254 339 C254.53753906 338.3709375 255.07507813 337.741875 255.62890625 337.09375 C268.36538953 323.04850527 289.59485179 314.54447307 308.13671875 313.125 C320.95041763 312.5656025 333.2909087 313.33518336 346 315 C338.13560579 338.27369161 327.47516053 356.63760596 304.875 368.25 C297.07677655 372.09510741 289.85887439 374.44201294 281.25 375.625 C280.37110107 375.76357422 279.49220215 375.90214844 278.58666992 376.04492188 C273.64801677 376.79024176 269.30666001 376.8985044 264.3125 376.5 C261.47950422 376.51759201 261.47950422 376.51759201 259 378 C254.61806729 383.50823295 252.34711774 390.44987612 250 397 C249.55551514 398.22275635 249.55551514 398.22275635 249.10205078 399.47021484 C243.28227542 415.83728602 239.65600658 432.72523667 238 450 C237.88785156 451.14339844 237.77570313 452.28679687 237.66015625 453.46484375 C236.51404547 467.92467971 236.91125416 482.50575586 237 497 C244.34487445 499.84285519 244.34487445 499.84285519 252 501 C254.22544802 499.43018189 255.83052139 498.05403675 257.6875 496.125 C258.74240274 495.0939044 259.79974112 494.0652954 260.859375 493.0390625 C261.38595703 492.5224707 261.91253906 492.00587891 262.45507812 491.47363281 C265.52856083 488.54197326 268.87998357 485.94823054 272.1875 483.2890625 C274.62321477 481.30666131 277.00651071 479.27621278 279.37939453 477.21948242 C307.2210041 453.1950788 338.50009601 433.06534105 371 416 C372.32354492 415.30028076 372.32354492 415.30028076 373.67382812 414.58642578 C392.55309825 404.66404264 412.31785532 395.72843618 432.88574219 389.92456055 C435.12505015 389.2942913 435.12505015 389.2942913 438 388 C438.96009638 386.19644023 438.96009638 386.19644023 439 384 C438.18421129 381.74028873 438.18421129 381.74028873 436.7890625 379.46484375 C436.29043701 378.58256104 435.79181152 377.70027832 435.27807617 376.79125977 C434.73256104 375.84951904 434.1870459 374.90777832 433.625 373.9375 C428.31141553 364.49726769 423.49151507 354.94797432 418.97314453 345.10644531 C418.09066286 343.19624666 417.18528271 341.29666816 416.27734375 339.3984375 C406.27732714 318.45277623 397.71828401 296.87970825 390 275 C389.77785828 274.3709375 389.55571655 273.741875 389.32684326 273.09375 C377.89416386 240.64205242 369.45913698 207.78013771 363 174 C362.69304199 172.4226709 362.69304199 172.4226709 362.37988281 170.81347656 C356.37962239 139.72312196 354.17110062 108.58877304 353 77 C352.53778549 77.39646225 352.07557098 77.7929245 351.59934998 78.20140076 C350.98318314 78.72976028 350.3670163 79.25811981 349.73217773 79.80249023 C349.0907785 80.35250702 348.44937927 80.9025238 347.7885437 81.46920776 C346.51993067 82.55499783 345.24766929 83.63653176 343.97290039 84.71508789 C338.36888977 89.51331426 333.15642844 94.69131114 327.9543457 99.9152832 C326.4400742 101.43491668 324.9205257 102.94912517 323.40039062 104.46289062 C318.60038433 109.25961474 313.90650375 114.10493117 309.49145508 119.26342773 C307.27263732 121.84690306 304.94614794 124.32057691 302.625 126.8125 C297.50765377 132.35321114 292.72535753 138.12107418 288 144 C286.6047661 145.68799565 285.20891764 147.37548348 283.8125 149.0625 C272.84681387 162.50308057 262.49621017 176.28429537 252.67382812 190.58251953 C251.01697779 192.97547928 249.33342352 195.34721339 247.640625 197.71484375 C247.12008545 198.45009277 246.5995459 199.1853418 246.06323242 199.94287109 C245.08658616 201.32228264 244.10272032 202.69662022 243.1105957 204.06494141 C241.99401391 205.6569288 240.98545037 207.32367475 240 209 C240.33 209.99 240.66 210.98 241 212 C243.71660909 213.35081665 246.3860167 214.54119354 249.1875 215.6875 C261.2023493 220.82104151 271.76027396 226.81481896 282 235 C281.36199463 234.77860352 280.72398926 234.55720703 280.06665039 234.32910156 C267.18617857 229.88333217 254.41755261 225.49528834 241 223 C240.06961914 222.81953125 239.13923828 222.6390625 238.18066406 222.453125 C194.5096594 214.253558 148.50457517 218.17060108 107 234 C117.39420577 222.92420697 133.47385092 217.26817315 147 211 C145.39906097 206.77537402 143.29767789 203.36713849 140.625 199.75 C139.71673386 198.50182137 138.80921386 197.25309954 137.90234375 196.00390625 C137.18860596 195.02381592 137.18860596 195.02381592 136.46044922 194.02392578 C134.49974424 191.3067335 132.58597311 188.55792919 130.66967773 185.80932617 C113.62000874 161.40170416 94.73995217 138.29704897 74.42626953 116.53955078 C72.2164184 114.15418255 70.05151915 111.72827011 67.875 109.3125 C62.98410887 103.9730992 57.92372174 98.81592949 52.8125 93.6875 C52.06403809 92.9344458 51.31557617 92.1813916 50.54443359 91.40551758 C42.95833798 83.31030357 42.95833798 83.31030357 34 77 Z " fill="#010000" transform="translate(319,203)"/>
<path d="M0 0 C3.44399263 1.22512844 5.85832126 2.47630358 8.48828125 5.01171875 C9.10799805 5.60106201 9.72771484 6.19040527 10.36621094 6.79760742 C11.00848633 7.42127197 11.65076172 8.04493652 12.3125 8.6875 C13.65665592 9.96969013 15.00169786 11.25095211 16.34765625 12.53125 C16.98461426 13.1396875 17.62157227 13.748125 18.27783203 14.375 C20.21921202 16.20684366 22.21458458 17.96099378 24.25 19.6875 C28.00460032 22.91155897 31.45286361 26.42517118 34.92578125 29.94506836 C38.21381746 33.26115362 41.62514528 36.35679463 45.16796875 39.39453125 C50.29452484 43.88709959 54.80750588 48.87478361 59.25 54.03125 C60.93798286 55.93023071 62.68769734 57.72005988 64.5 59.5 C68.21204116 63.16287506 71.60791175 67.04149094 75 71 C75.8837913 72.01981151 76.76793245 73.03931988 77.65234375 74.05859375 C106.07746023 106.9026408 130.73996508 142.18643752 150.8125 180.75 C151.12576233 181.35043121 151.43902466 181.95086243 151.76177979 182.56948853 C157 192.64225564 157 192.64225564 157 195 C152.5991116 197.0781973 152.5991116 197.0781973 150.0546875 196.74609375 C147.62874158 195.86518943 146.27343942 194.74494858 144.375 193 C143.67375 192.36578125 142.9725 191.7315625 142.25 191.078125 C140.75 189.69270833 139.25 188.30729167 137.75 186.921875 C132.44690058 182.07233013 126.98206632 177.55025167 121.30517578 173.15283203 C117.53920182 170.23072835 113.87478449 167.22263439 110.25 164.125 C97.93036961 153.79029008 84.52050235 144.68537692 71 136 C70.23913086 135.51063965 69.47826172 135.0212793 68.69433594 134.51708984 C39.59244447 115.90972754 9.25379863 101.24620102 -23 89 C-23.92538574 88.64824707 -24.85077148 88.29649414 -25.80419922 87.93408203 C-30.1953986 86.26909617 -34.59268137 84.62194801 -39 83 C-37.89884884 80.76930122 -36.79465943 78.54021827 -35.6875 76.3125 C-35.15116943 75.23270874 -35.15116943 75.23270874 -34.60400391 74.13110352 C-32.62666444 70.17432013 -30.61048582 66.2454244 -28.51171875 62.3515625 C-22.82709087 51.78264252 -17.62171131 41.05989147 -12.6875 30.125 C-12.39703796 29.48335907 -12.10657593 28.84171814 -11.80731201 28.18063354 C-7.61021023 18.88696597 -3.72026503 9.49413659 0 0 Z " fill="#FDFDFC" transform="translate(305,507)"/>
<path d="M0 0 C3.02172927 2.55868211 4.20074088 5.35640912 5.71484375 8.9765625 C5.96638214 9.57020599 6.21792053 10.16384949 6.4770813 10.77548218 C7.01924236 12.05504196 7.55853438 13.33582042 8.09524536 14.61767578 C9.53023433 18.03764877 10.99472887 21.44488003 12.4609375 24.8515625 C12.7580513 25.54211731 13.0551651 26.23267212 13.36128235 26.94415283 C20.19705005 42.76317055 27.77263793 58.19625315 36.43188477 73.09960938 C36.91455811 73.94974609 37.39723145 74.79988281 37.89453125 75.67578125 C38.32612549 76.41739502 38.75771973 77.15900879 39.20239258 77.9230957 C40 80 40 80 39.93823242 82.14697266 C39 84 39 84 36.89648438 85.10571289 C35.97158203 85.3918042 35.04667969 85.67789551 34.09375 85.97265625 C33.05283203 86.3087793 32.01191406 86.64490234 30.93945312 86.99121094 C29.80443359 87.34473633 28.66941406 87.69826172 27.5 88.0625 C-22.01163576 104.37109329 -67.14192054 131.98039109 -108 164 C-108.85078125 164.66644531 -109.7015625 165.33289063 -110.578125 166.01953125 C-120.55535881 173.92085673 -130.22155133 182.16536838 -139.5625 190.80859375 C-141.98685922 192.98818593 -144.3448546 195.10532996 -147 197 C-150.08675512 196.81842617 -152.24364365 196.37817818 -155 195 C-145.2495667 162.08555388 -120.74078624 130.84186591 -100 104 C-99.54173828 103.4028418 -99.08347656 102.80568359 -98.61132812 102.19042969 C-92.17830083 93.81836934 -85.45115344 85.74279783 -78.52929688 77.77197266 C-76.97078867 75.96615328 -75.42871772 74.14744722 -73.890625 72.32421875 C-68.79789388 66.2988119 -63.64771557 60.4930251 -57.98828125 54.984375 C-56.17919366 53.17884161 -54.52251245 51.32698943 -52.875 49.375 C-45.22396242 40.46969397 -36.6532494 32.04326243 -27.6875 24.46875 C-25.87059567 22.88737031 -24.1878872 21.21802804 -22.5 19.5 C-15.51442784 12.42002822 -7.71709742 6.25595581 0 0 Z " fill="#FDFDFD" transform="translate(718,507)"/>
<path d="M0 0 C0.66 0.33 1.32 0.66 2 1 C1 4 1 4 -1.875 5.75 C-5 7 -5 7 -8 6 C-5.36 4.02 -2.72 2.04 0 0 Z " fill="#2C1100" transform="translate(430,432)"/>
</svg>
